P2
# CREATOR: GIMP PNM Filter Version 1.1
23 10
255
0
0
0
0
0
0
0
0
0
0
0
0
0
0
0
0
0
0
0
0
0
0
0
0
0
0
255
255
255
255
0
0
0
0
0
0
0
0
0
0
0
0
0
0
0
0
0
0
255
255
0
0
0
0
0
0
0
0
0
0
0
0
0
0
0
0
0
0
0
0
0
255
255
0
0
0
0
205
205
205
205
205
0
0
155
155
155
155
155
155
0
0
0
255
255
255
255
255
0
205
205
0
0
0
205
205
0
155
155
0
0
0
155
155
0
0
0
255
255
0
0
0
205
205
205
205
205
205
205
0
155
155
0
0
0
155
155
0
0
0
255
255
0
0
0
205
205
0
0
0
0
0
0
155
155
0
0
0
155
155
0
0
0
255
255
0
0
0
205
205
0
0
0
205
205
0
155
155
0
0
0
155
155
0
0
0
255
255
0
0
0
0
205
205
205
205
205
0
0
155
155
0
0
0
155
155
0
0
0
0
0
0
0
0
0
0
0
0
0
0
0
0
0
0
0
0
0
0
0
0
