P2
# CREATOR: GIMP PNM Filter Version 1.1
16 9
255
19
62
176
217
202
109
28
19
19
19
16
14
14
14
14
14
19
103
220
210
236
182
55
27
27
31
23
17
15
15
14
14
23
81
202
245
240
127
36
38
55
67
61
30
17
14
15
15
17
26
65
116
92
45
46
74
106
132
131
97
41
20
17
17
14
17
18
20
29
41
63
98
136
169
167
162
110
52
21
18
14
14
15
16
17
19
23
54
116
159
165
160
137
80
40
20
14
14
14
14
14
16
17
20
42
108
148
153
130
58
37
28
14
14
14
14
14
14
14
17
18
36
97
117
78
32
22
27
16
18
16
14
14
16
18
20
22
18
30
41
24
27
36
41
